<svg width="24" height="24" viewBox="0 0 24 24" fill="none" xmlns="http://www.w3.org/2000/svg">
<path d="M19.998 12C19.998 16.4171 16.4172 19.998 12 19.998M19.998 12C19.998 7.58278 16.4172 4.00195 12 4.00195M19.998 12H4.002M12 19.998C7.58283 19.998 4.002 16.4171 4.002 12M12 19.998C13.7944 19.998 15.249 16.4171 15.249 12C15.249 7.58278 13.7944 4.00195 12 4.00195M12 19.998C10.2056 19.998 8.751 16.4171 8.751 12C8.751 7.58278 10.2056 4.00195 12 4.00195M4.002 12C4.002 7.58278 7.58283 4.00195 12 4.00195" stroke="#F24236" stroke-width="1.5" stroke-miterlimit="10" stroke-linecap="round" stroke-linejoin="round"/>
</svg>
