<svg width="24" height="24" viewBox="0 0 24 24" fill="none" xmlns="http://www.w3.org/2000/svg">
<path d="M14.387 2.72501C18.192 2.72501 21.276 5.80901 21.276 9.61401M14.387 6.26501C16.236 6.26501 17.736 7.76401 17.736 9.61401M9.606 14.365C10.506 15.228 11.561 15.93 12.727 16.428L13.246 16.649L14.841 15.029C15.237 14.627 15.81 14.453 16.363 14.569L20.227 15.378C20.881 15.517 21.348 16.094 21.348 16.762V19.544C21.348 20.539 20.542 21.345 19.547 21.345H18.692C14.758 21.345 10.876 20.042 7.94 17.424C7.698 17.209 7.463 16.986 7.234 16.758L7.271 16.795C7.042 16.566 6.82 16.331 6.605 16.089C3.986 13.154 2.683 9.27201 2.683 5.33801V4.48301C2.683 3.48801 3.489 2.68201 4.484 2.68201H7.266C7.934 2.68201 8.511 3.14901 8.65 3.80301L9.46 7.66701C9.575 8.21901 9.402 8.79301 9 9.18901L7.38 10.784L7.601 11.303C8.099 12.468 8.742 13.465 9.606 14.365Z" stroke="#F24236" stroke-width="1.5" stroke-miterlimit="10" stroke-linecap="round" stroke-linejoin="round"/>
</svg>
